<?xml version="1.0" encoding="UTF-8"?>
<!-- Generator: Adobe Illustrator 22.1.0, SVG Export Plug-In . SVG Version: 6.00 Build 0)  -->
<svg version="1.1" id="Layer_1" xmlns="http://www.w3.org/2000/svg" xmlns:xlink="http://www.w3.org/1999/xlink" x="0px" y="0px" viewBox="0 0 1407.7 521.1" style="enable-background:new 0 0 1407.7 521.1;" xml:space="preserve">
<style type="text/css">
	.st0{fill:#3E3E3E;}
</style>
<rect x="7.5" y="159.5" transform="matrix(0.9613 -0.2756 0.2756 0.9613 -42.8547 60.2056)" class="st0" width="370.8" height="46.2"/>
<ellipse transform="matrix(0.2298 -0.9732 0.9732 0.2298 -150.6254 159.1361)" class="st0" cx="25.2" cy="174.7" rx="25.2" ry="25.2"/>
<circle class="st0" cx="311.3" cy="56.4" r="56.4"/>
<path class="st0" d="M103.7,271.9V351h106.9v50.4H103.7v67.4H230v52.3H35.7V271.9"/>
<path class="st0" d="M676,471.4h-87.9l-15.4,49.7h-68.5L601.8,255h60.3l98.3,266.1h-68.9L676,471.4z M603.4,421.9h57.2l-28.7-92.3  L603.4,421.9z"/>
<path class="st0" d="M779.8,521.1V255h95.6c34.2,0,60.3,6.3,78.1,18.8c17.8,12.5,26.8,30.8,26.8,54.6c0,13.8-3.2,25.5-9.5,35.3  c-6.3,9.7-15.7,16.9-28,21.6c13.9,3.7,24.5,10.5,32,20.5c7.4,10,11.1,22.2,11.1,36.5c0,26.1-8.3,45.7-24.8,58.8  c-16.5,13.1-41,19.8-73.4,20H779.8z M843.9,366h33.4c14-0.1,24-2.7,30-7.7c6-5,9-12.4,9-22.2c0-11.2-3.2-19.3-9.7-24.3  c-6.5-4.9-16.9-7.4-31.2-7.4h-31.4V366z M843.9,408v63.8h42c11.6,0,20.5-2.6,26.7-7.9c6.2-5.3,9.3-12.8,9.3-22.4  c0-22.2-11-33.3-33.1-33.4H843.9z"/>
<path class="st0" d="M1085.3,471.8H1197v49.3h-175.8V255h64.1V471.8z"/>
<path class="st0" d="M1389,408.2h-100.9v63.6h119.1v49.3H1224V255h183.7v49.5h-119.5v56.1H1389V408.2z"/>
<polygon class="st0" points="421.1,255 421.1,434.3 333.6,291.4 274,194.1 274,291.4 274,521.1 333.6,521.1 333.6,378.2   421.3,521.1 480.6,521.1 480.6,255 "/>
</svg>